# xmcd
#
# Track frame offsets:
#	150
#	18183
#	32468
#	46767
#	63479
#	86768
#	108755
#	125415
#	137369
#	151211
#	174837
#	205152
#
# Disc length: 3226 seconds
#
# Revision: 1
# Processed by: cddbd v1.5.1PL2 Copyright (c) Steve Scherf et al.
# Submitted via: EasyCDDAExtractor 6.5.9.5
#
DISCID=870c980c
DTITLE=Ronnie Milsap - Images
DYEAR=1979
DGENRE=country
TTITLE0=Nobody Likes Sad Songs
TTITLE1=Keep The Night Away
TTITLE2=I Really Don't Want To Know
TTITLE3=Just Because It Feels Good
TTITLE4=You Don't Look For Love
TTITLE5=Hi-Heel Sneakers
TTITLE6=In No Time At All
TTITLE7=Delta Queen
TTITLE8=All Good Things Don't Have To End
TTITLE9=Get It Up
TTITLE10=Hi-Heel Sneakers (Remix)
TTITLE11=Get It Up (Remix)
EXTD=
EXTT0=
EXTT1=
EXTT2=
EXTT3=
EXTT4=
EXTT5=
EXTT6=
EXTT7=
EXTT8=
EXTT9=
EXTT10=
EXTT11=
PLAYORDER=
